<svg width="16" height="19" viewBox="0 0 16 19" fill="none" xmlns="http://www.w3.org/2000/svg">
<path d="M14.2857 8H13.4286V5.42857C13.4286 2.43571 10.9929 0 8 0C5.00714 0 2.57143 2.43571 2.57143 5.42857V8H1.71429C0.767857 8 0 8.76786 0 9.71429V16.5714C0 17.5179 0.767857 18.2857 1.71429 18.2857H14.2857C15.2321 18.2857 16 17.5179 16 16.5714V9.71429C16 8.76786 15.2321 8 14.2857 8ZM10.5714 8H5.42857V5.42857C5.42857 4.01071 6.58214 2.85714 8 2.85714C9.41786 2.85714 10.5714 4.01071 10.5714 5.42857V8Z" fill="black"/>
</svg>
