<svg width="175" height="240" viewBox="0 0 175 240" fill="none" xmlns="http://www.w3.org/2000/svg">
<path d="M145.202 6.88909C153.385 4.25567 159.183 26.3061 158.082 37.2901C157.694 40.4811 156.537 43.4046 156.161 44.8088C160.173 48.3243 160.093 54.4582 160.851 59.2157C160.931 59.6208 160.937 60.096 161.298 60.3699C163.537 62.454 162.159 65.0756 161.662 66.9471C160.867 70.1009 159.999 76.7167 159.552 79.8304C159.508 80.2698 159.258 80.6584 159.215 81.0967C159.524 82.1621 160.531 82.239 161.271 86.8127C161.613 92.2514 162.883 91.0177 165.223 100.932C166.251 105.351 165.963 108.901 167.813 113.081C170.039 118.329 169.476 123.675 168.154 129.242C165.948 137.946 165.797 136.24 165.608 142.632C165.078 159.949 163.682 146.949 161.85 159.322C160.69 169.518 157.811 181.96 159.182 191.921C160.091 198.099 160.377 204.225 161.87 208.082C162.519 210.1 165.094 218.578 165.135 218.787C164.756 222.335 163.448 222.573 162.269 222.779C158.847 227.007 155.76 227.895 152.026 223.983C146.953 225.815 145.22 223.937 143.832 220.766C143.173 219.525 142.965 220.457 140.622 218.123C139.425 216.83 139.836 217.028 140.398 213.222C140.857 210.321 140.279 209.048 140.241 208.112C139.884 197.881 135.964 190.807 135.429 189.208C135.024 189.123 134.612 189.053 134.26 188.822C131.908 191.707 129.502 190.027 129.019 194.668C128.833 194.304 128.715 193.863 128.356 193.63C127.849 193.422 127.175 195.862 126.679 196.874C124.766 197.134 124.248 199.273 122.715 200.062C122.05 200.398 121.522 200.93 121.035 201.481C121.662 204.177 121.288 206.432 122.519 211.938C122.746 212.99 123.607 213.7 124.245 214.506C126.044 216.914 130.38 217.423 130.612 219.574C130.738 221.185 130.808 222.817 130.574 224.425C130.454 225.151 131.214 227.654 129.354 229.643C128.577 230.463 127.457 231.156 126.361 230.714C126.048 233.64 125.176 232.516 123.38 232.424C122.772 232.307 122.194 232.558 121.606 232.635C120.459 232.485 119.293 232.499 118.155 232.723C116.845 232.926 115.573 233.457 114.233 233.401C113.602 233.398 113.178 232.899 112.771 232.494C108.218 228.092 102.167 218.733 99.9971 210.381C100.663 215.211 103.2 217.398 99.5782 220.367C97.9004 220.425 96.295 221.028 94.6184 221.093C93.9654 221.127 93.3619 220.85 92.7446 220.689C83.7586 218.163 76.5969 222.905 66.5947 222.352C64.1301 221.645 61.7748 220.503 59.2109 220.156C58.5464 220.057 57.8704 220.1 57.2059 220.011C56.5261 219.908 55.9749 219.429 55.2938 219.332C54.1008 219.106 52.9285 219.639 51.733 219.511C50.4521 219.399 50.7361 218.976 48.4053 218.839C34.3983 218.086 37.973 223.02 26.5888 216.961C23.3132 215.175 23.4627 213.261 19.7919 209.357C12.494 201.908 8.56407 190.272 8.42355 180.591C8.43502 179.886 8.02761 179.262 8.04163 178.56C8.01996 176.646 8.11289 174.734 8.12309 172.822C8.07846 168.639 6.96516 170.454 5.20645 163.245C4.91109 161.856 4.59533 160.396 4.92384 158.987C4.96846 158.596 5.36681 158.506 5.65707 158.352C6.0387 154.757 8.17607 150.25 10.0033 147.912C10.3166 147.503 10.715 147.168 11.0154 146.749C11.3616 146.257 11.3654 145.62 11.6455 145.099C11.7677 144.858 12.0884 144.825 12.254 145.039C13.7638 146.331 13.3883 148.665 14.7747 150.042C15.0306 150.284 15.27 150.641 15.6544 150.655C16.0657 150.32 16.2031 149.758 16.6156 149.429C18.8237 148.626 17.054 152.721 20.6295 156.693C20.7267 156.551 35.5539 132.042 40.679 126.362C42.6769 124.118 44.3028 123.091 45.4351 121.312C45.845 120.687 46.1072 119.979 46.5312 119.362C48.5248 116.289 50.7259 113.358 52.8175 110.351C56.4778 105.277 54.0447 103.051 57.6017 100.974C57.5164 100.086 57.0962 99.2824 56.9091 98.4186C56.6959 97.8815 59.7168 96.0326 60.9511 94.5395C60.1707 94.3241 59.3522 94.2337 58.6061 93.9026C61.6707 91.2669 64.1562 87.5582 63.6703 84.6716C62.6914 80.0562 61.4924 80.8095 61.9682 69.5042C61.9491 68.5552 62.0815 67.5157 61.5812 66.6609C49.4331 43.2436 53.7927 38.5078 54.3935 31.4304C54.9171 26.9761 56.0521 24.9628 58.3719 22.4123C59.154 21.6152 63.1379 21.9727 66.014 23.099C68.7523 24.1359 71.1954 25.778 73.7161 27.2392C77.7732 29.6307 76.512 28.2799 80.9814 31.9132C90.0923 24.3115 82.9904 28.761 93.3047 23.6225C92.8858 23.9995 92.7903 24.5613 92.9393 25.0901C104.934 23.918 113.736 18.2746 123.901 23.5167C128.403 25.7091 130.121 19.9382 137.938 11.9685C140.025 9.86498 142.379 7.90179 145.202 6.88909ZM144.691 12.8575C143.169 13.7556 141.425 13.3995 138.119 17.3646C136.974 18.7511 133.011 24.5386 132.92 24.8949C132.459 26.3433 132.785 27.8682 132.819 29.3486C134.85 30.817 137.455 30.5572 139.878 29.9231C140.353 28.6849 140.797 27.4364 141.264 26.1943C141.514 27.3894 141.756 28.5855 142.008 29.7805C142.616 28.2569 143.215 26.7308 143.822 25.2072C144.015 26.5435 144.183 27.8837 144.389 29.2187C145.112 27.1436 145.793 25.0555 146.506 22.9765C146.209 25.7154 145.901 28.4518 145.605 31.1894C146.776 30.2085 147.942 29.22 149.114 28.2378C148.111 29.9346 147.1 31.6277 146.095 33.3233C147.251 33.0124 148.409 32.7143 149.561 32.387C148.271 33.4788 147.73 35.2214 147.807 36.8712C149.454 38.753 151.091 41.7547 152.154 41.8675C155.994 38.8284 154.168 20.1143 149.844 13.9965C147.509 11.0194 146.519 11.9165 144.691 12.8575ZM59.5635 28.0579C59.0963 28.5787 58.0197 33.7724 57.9327 34.2352C57.5853 36.0837 57.6616 37.9729 57.6323 39.8444C57.366 46.9009 60.559 53.9942 64.9359 59.7979C66.1224 58.7023 66.8327 57.2042 67.3279 55.6921C67.5424 55.1056 67.014 50.3575 66.9868 50.1543C66.6902 49.2065 66.3006 48.2892 65.9735 47.3529C66.5183 47.2052 67.0633 47.0548 67.6056 46.8931C66.857 46.3632 66.1174 45.8217 65.3726 45.2892C66.3312 45.3339 67.2898 45.3822 68.2497 45.4269C67.5571 43.8956 66.8607 42.3669 66.1721 40.8357C67.7304 42.2001 69.2823 43.5734 70.8378 44.9415C70.9014 43.9301 70.9652 42.9172 71.0301 41.9058C71.7582 43.1466 72.4775 44.3912 73.2044 45.632C73.5965 44.5555 73.9835 43.4777 74.3769 42.4027C74.7042 43.6804 75.0185 44.9607 75.3483 46.2384C75.4489 45.6422 75.5443 45.0447 75.6602 44.4525C75.7366 44.4499 75.8882 44.4474 75.9645 44.4448C76.4457 45.1034 76.9397 45.7531 77.4209 46.4129C76.9952 44.1456 76.5211 40.1323 78.5056 38.9821C78.8035 38.7667 79.1803 38.8738 79.5202 38.8572C79.3121 37.6566 66.022 26.8568 59.5635 28.0579ZM125.24 51.9288C124.958 51.7378 124.677 51.5467 124.397 51.3581C122.541 54.1401 120.443 58.7034 121.131 61.8794C121.632 64.4194 121.954 64.4892 122.669 64.7675C123.13 65.4095 123.706 66.0223 124.482 66.263C127.96 67.3634 129.892 61.9858 131.968 57.4079C131.972 54.334 131.738 54.6404 130.361 51.1822C129.847 51.2535 129.333 51.3262 128.818 51.3975C128.664 50.9581 128.51 50.5198 128.357 50.0816C127.87 50.4078 127.38 50.7275 126.895 51.0524C126.799 50.7198 126.691 50.3912 126.571 50.0689C126.119 50.6829 125.684 51.3084 125.24 51.9288ZM96.2902 55.8855C96.1171 56.1645 95.944 56.4448 95.772 56.725C95.2335 56.5607 94.6962 56.395 94.159 56.2307C94.1399 56.4652 94.1208 56.6995 94.1044 56.934C93.655 56.9276 93.2055 56.9199 92.7575 56.9136C92.7015 57.4194 92.6467 57.925 92.5907 58.4308C92.2737 58.3531 91.9555 58.2754 91.6398 58.2002C91.4608 59.0025 90.5409 62.8854 91.0148 63.4271C92.0982 64.9775 93.2744 66.5533 94.9166 67.5496C95.4238 67.8793 102.888 71.1951 104.383 67.9164C105.246 65.9213 105.251 62.6584 104.7 60.4296C104.237 58.3549 101.701 56.8866 99.2387 56.2384C98.7294 56.0766 98.2482 56.4078 97.7734 56.5429C97.278 56.3239 96.7829 56.1047 96.2902 55.8855ZM152.716 61.5317C151.655 63.3152 150.674 65.2413 150.522 67.3459C150.02 66.7828 149.633 66.1331 149.254 65.4846C149.627 67.9074 149.604 75.6138 151.815 79.0061C151.246 79.1134 150.675 79.0429 150.795 79.9602C150.913 80.894 151.477 81.6775 151.845 82.522C150.277 82.9272 148.73 82.182 147.188 81.9807C146.67 81.9033 141.367 82.0398 139.041 81.5704C137.822 81.3538 136.756 80.6124 135.502 80.5488C136.264 82.0792 141.282 86.4941 141.879 90.2179C142.256 92.6303 142.633 95.6552 141.272 96.5735C140.865 96.7544 140.754 96.1965 140.66 95.9251C142.891 92.5119 138.456 82.1224 132.165 80.4749C131.127 80.2164 130.315 79.4635 129.326 79.0901C128.337 78.7169 127.352 78.336 126.378 77.9283C127.712 80.9426 127.835 81.0434 127.834 81.6074C127.908 83.3553 129.013 84.8495 129.124 86.5897C129.342 89.4491 128.356 91.0759 125.316 90.7568C124.588 90.6868 123.912 90.2383 123.653 89.539C123.329 90.5225 122.427 91.1645 121.545 91.6142C120.453 91.818 119.324 91.6295 118.223 91.767C117.632 92.395 117.12 93.2078 116.267 93.5097C115.794 93.3861 115.371 93.1288 114.937 92.9122C113.561 93.7747 110.944 95.7082 109.637 94.7442C109.104 94.3798 109.009 93.6334 108.429 93.3212C108.085 92.6996 107.791 92.0523 107.47 91.418C108.685 86.3761 108.157 83.9012 107.443 80.2049C101.189 88.1265 96.6269 95.7742 83.1611 96.2462C82.5297 96.2971 81.8384 95.9953 81.6335 95.357C80.7601 92.8211 82.2365 92.708 80.9791 85.9375C80.8365 85.27 80.8607 84.5312 80.4356 83.9592C78.7716 81.391 75.7431 79.8838 72.7272 79.7387C69.3522 79.5878 69.0087 79.0095 69.4719 84.0624C69.0645 83.6993 68.6509 83.3451 68.2307 82.9974C68.9318 84.794 68.3347 85.6486 69.8972 88.0014C70.2766 88.5491 70.5503 89.1938 71.0838 89.618C73.9161 91.9961 72.4924 91.3825 73.1983 92.3276C74.0309 93.5569 75.1614 94.5379 76.1188 95.664C75.9699 95.0997 75.8234 94.5175 75.9329 93.9315C76.8918 94.4591 77.5901 97.2921 77.9291 98.6959C78.3097 100.769 83.8752 104.709 85.2771 105.994C86.0715 106.552 87.058 106.725 87.9926 106.91C88.2114 106.938 88.1488 106.852 90.7972 109.643C91.4002 110.251 92.1623 110.005 93.2554 110.505C95.9008 111.644 98.5577 112.763 101.225 113.848C103.254 115.249 106.363 118.22 109.902 118.028C124.244 118.531 123.72 117.65 126.635 117.188C134.74 115.69 132.598 116.52 144.65 105.558C145.296 104.992 145.595 104.147 146.207 103.547C147.016 102.616 148.296 102.003 148.612 100.719C148.901 99.3878 153.425 91.7661 153.516 91.6242C154.758 89.4916 154.804 86.949 155.611 84.661C156.677 81.2787 155.676 81.4295 155.681 80.2099C155.588 78.9231 156.494 77.89 156.817 76.7015C157.223 75.5307 157.055 74.2785 157.169 73.067C157.308 71.5969 157.956 70.2516 158.462 68.8848C159.276 66.709 158.946 65.6127 157.66 62.012C157.339 61.1364 156.285 58.1426 155.358 58.2119C154.275 59.1342 153.474 60.3393 152.716 61.5317ZM131.205 63.4362C130.483 63.9369 130.075 64.7343 129.646 65.4745C129.293 66.1166 128.763 66.6402 128.431 67.2962C128.143 67.8504 127.872 68.4134 127.549 68.9486C127.979 69.1613 128.552 69.276 128.71 69.8008C129.185 70.9205 130.25 71.6276 131.321 72.1092C129.77 71.1556 129.058 70.0472 129.579 67.6186C130.432 63.9345 132.878 62.8027 136.318 62.97C135.21 62.749 133.267 61.9865 131.205 63.4362ZM138.348 63.5126C143.75 66.2763 142.427 73.3522 134.15 72.9804C138.235 73.769 142.62 72.0339 142.936 66.2032C143.037 65.7751 143.303 65.4146 143.514 65.0362C143.342 64.7305 143.232 64.3968 143.281 64.0425C142.78 64.2413 142.279 64.5151 141.74 64.5674C140.613 64.2069 139.489 63.8299 138.348 63.5126ZM133.523 66.1572C133.15 66.3483 133.009 66.7739 132.836 67.1267C132.523 67.6681 132.847 68.3064 133.186 68.7497C133.842 69.2312 134.707 69.1904 135.481 69.2389C136.808 67.7221 136.551 67.4379 135.465 66.4821C134.953 66.0057 134.157 65.8401 133.523 66.1572ZM95.4117 69.8785C97.2856 70.2326 99.1137 70.9703 100.612 72.1677C102.118 73.286 100.63 77.9157 99.6855 79.6201C102.075 77.4117 101.563 74.9042 102.321 73.9041C102.624 73.5347 103.046 73.2938 103.409 72.9907C102.273 71.0067 101.567 71.3287 100.82 71.0607C99.9772 70.7703 99.1713 70.3804 98.3132 70.1397C97.3747 69.8645 96.3831 69.7587 95.4117 69.8785ZM88.6785 74.2786C88.3183 74.9334 87.7377 75.3971 87.1953 75.8914C87.2628 76.5895 88.1005 76.7513 88.6466 76.9462C88.8686 79.4072 92.4019 81.2306 94.8706 81.4725C95.6942 81.5706 96.4746 81.2584 97.2487 81.0318C94.9699 81.2839 92.5715 80.5323 90.8707 78.9909C89.6361 76.919 89.3042 73.8896 91.259 71.5244C90.2914 72.3346 89.5047 73.3308 88.6785 74.2786ZM95.5517 73.6467C94.3384 74.0748 93.6921 74.6317 94.5193 76.3576C94.7675 76.8277 95.1851 77.3258 95.7605 77.3335C96.5259 76.932 98.0639 76.3001 97.0934 74.4263C96.8108 73.885 96.1909 73.3766 95.5517 73.6467ZM148.643 114.797C147.733 115.081 145.729 120.444 145.657 120.586C145.346 121.187 144.743 121.547 144.353 122.088C143.555 123.134 142.888 124.271 142.151 125.361C140.129 128.3 140.375 127.019 139.475 127.519C137.526 128.482 137.269 129.23 136.276 131.206C135.628 132.619 135.194 132.57 133.688 137.289C133.338 138.486 133.009 139.498 134.21 139.952C134.847 139.932 135.252 139.384 135.579 138.905C136.129 138.115 137.293 138.499 137.922 137.82C139.787 136.025 141.537 134.114 143.27 132.193C146.332 128.973 152.573 113.563 148.643 114.797ZM85.1075 119.23C84.7772 119.894 90.834 129.857 97.269 134.259C100.141 136.14 99.7654 135.479 100.867 134.625C101.959 135.339 102.896 136.269 104.017 136.942C104.606 137.33 105.353 137.293 105.958 137.651C106.229 137.835 106.543 137.751 106.832 137.664C109.465 138.773 112.354 137.933 114.651 139.933C115.023 140.238 115.471 140.658 115.992 140.439C116.407 140.269 116.9 140.092 117.126 139.68C117.16 139.377 116.034 135.941 115.144 134.849C112.06 131.055 113.18 133.079 111.929 131.17C110.273 128.598 109.861 129.254 108.36 128.991C107.217 128.94 106.275 128.217 105.199 127.933C104.376 127.789 103.536 127.847 102.706 127.803C102.263 127.231 102.012 126.547 101.621 125.944C101.358 125.522 100.714 125.274 100.309 125.645C99.9881 125.841 99.7488 126.28 99.3337 126.243C98.7749 125.813 98.454 125.099 97.7921 124.8C97.2409 124.625 96.8067 125.118 96.4069 125.413C96.0382 124.909 94.667 122.252 93.6253 123.419C93.2942 123.768 93.3897 124.283 93.3771 124.72C92.9367 124.459 92.4757 124.225 92.0938 123.883C91.3962 123.243 89.9054 120.745 88.1881 120.123C87.6597 119.913 85.7119 118.306 85.1075 119.23ZM158.421 132.19C158.2 132.509 157.899 132.766 157.52 132.872C156.579 132.506 156.09 134.194 155.676 135.197C155.284 136.38 154.226 137.133 153.368 137.967C152.517 138.652 151.728 139.588 150.582 139.727C150.586 139.282 150.67 138.846 150.767 138.416C147.752 139.632 144.695 142.662 142.031 144.528C142.025 144.23 142.008 143.929 141.984 143.635C136.801 148.491 131.782 150.783 129.626 150.207C129.848 149.819 130.118 149.462 130.379 149.1C129.465 149.303 128.595 149.704 127.84 150.257C127.715 150.865 127.257 151.339 126.67 151.52C126.514 150.811 126.427 150.091 126.389 149.369C126.145 150.346 126.002 151.629 124.925 152.049C123.517 151.387 122.138 150.656 120.846 149.784C117.233 147.384 119.53 148.657 115.026 147.049C116.361 148.25 116.893 150.744 115.885 150.826C114.948 150.925 113.773 148.778 112.44 147.86C109.102 145.692 108.309 144.505 102.84 143.417C103.271 144.354 104.425 144.935 104.187 145.434C103.106 146.381 100.344 144.507 99.5224 144.278C99.4525 144.712 99.4512 145.151 99.4753 145.591C98.7255 144.895 98.2149 143.915 97.292 143.429C97.2882 143.873 97.3696 144.31 97.4575 144.746C97.0972 144.28 96.7611 143.789 96.3066 143.408C96.1284 143.945 95.8979 144.638 95.2551 144.745C94.4568 144.338 91.9671 142.115 91.1889 140.95C91.269 141.514 91.3264 142.082 91.3926 142.65C88.1627 141.173 84.7661 138.645 83.245 137.999C83.1916 138.607 83.3532 139.202 83.4245 139.802C81.3674 138.967 78.0046 136.828 75.921 136.351C77.3243 138.944 82.1048 142.476 81.3265 143.675C81.8828 143.928 82.5271 144.039 82.9739 144.487C84.7646 146.175 84.3827 147.436 83.5429 147.479C83.1814 147.442 82.8235 147.372 82.462 147.342C83.9567 149.676 86.3778 149.321 87.8764 150.652C87.4754 151.156 86.8885 151.439 86.3806 151.815C87.1037 152.205 88.0203 151.965 88.667 152.525C92.8885 155.201 96.6695 154.715 101.967 160.757C110.369 170.426 104.238 164.904 112.207 170.748C111.84 170.739 111.476 170.775 111.125 170.874C111.968 171.539 113.055 171.802 114.09 172.002C114.686 172.149 115.129 171.674 115.633 171.466C116.367 171.291 117.173 171.934 117.157 172.694C117.157 173.477 115.659 174.642 114.637 176.174C113.909 177.253 112.346 182.436 112.174 183.907C111.955 185.759 112.366 196.821 108.962 197.628C105.123 198.539 98.6776 197.565 96.5916 193.013C96.1589 192.109 95.6458 191.247 95.1009 190.409C96.706 193.761 97.0665 196.201 93.3683 196.567C96.0552 201.572 100.74 205.261 101.723 209.637C102.787 214.366 104.357 216.532 104.737 217.498C106.341 222.002 108.06 225.059 111.251 227.66C112.367 232.044 116.551 232.611 117.714 231.661C116.125 230.223 113.091 227.445 114.22 225.63C117.772 228.596 118.138 230.781 119.895 231.488C121.315 232.04 124.188 231.697 124.602 231.232C126.124 229.593 120.786 223.645 118.371 223.735C118.71 223.452 119.088 223.156 119.553 223.169C122.099 223.169 126.447 227.859 127.153 229.698C130.846 226.525 127.051 221.706 122.982 219.42C123.762 218.739 126.793 220.304 128.919 223.021C130.402 219.326 126.135 215.614 122.807 215.328C120.766 214.363 120.395 212.095 119.61 204.606C117.959 197.755 118.868 194.583 118.969 192.436C119.342 187.353 119.563 179.668 120.979 179.177C121.405 179.187 121.787 179.636 121.716 180.066C120.58 191.766 118.861 196.342 121.11 198.868C122.002 198.17 122.63 197.212 123.347 196.348C124.175 195.431 125.153 194.669 126.113 193.896C131.392 189.642 129.521 189.091 131.654 185.688C131.945 185.204 132.423 184.843 132.996 184.791C133.164 185.722 132.982 186.688 133.22 187.609C133.991 186.539 134.082 185.048 135.129 184.171C135.534 184.866 135.228 185.748 135.632 186.442C135.798 186.699 136.14 186.606 136.304 186.395C137.219 185.401 137.844 184.181 138.726 183.16C139.043 183.536 139.334 183.954 139.442 184.443C138.51 185.926 136.354 185.914 137.963 190.591C139.809 196.176 140.628 202.022 141.992 207.729C142.159 208.844 141.186 212.707 141.112 215.37C141.112 216.178 141.157 217.137 141.828 217.698C142.473 218.195 143.343 218.038 144.082 217.892C144.417 216.486 145.379 215.288 146.546 214.47C147.29 213.953 148.334 213.658 149.161 214.164C150.064 214.712 150.436 215.765 150.771 216.712C150.49 216.295 150.165 215.879 149.689 215.679C147.431 214.634 144.463 217.008 145.973 220.406C146.628 221.361 147.558 222.131 148.594 222.642C149.223 222.936 150.064 223.153 150.649 222.654C151.209 222.142 151.228 221.324 151.292 220.622C151.422 219.369 151.488 218.061 152.067 216.917C152.423 216.201 153.129 215.669 153.93 215.573C154.886 215.435 155.979 215.034 156.856 215.649C157.08 215.773 157.308 216.221 156.944 216.307C156.28 216.37 155.586 216.548 155.136 217.079C154.244 218.094 154.231 219.527 153.707 220.721C155.546 226.827 160.399 223.101 159.312 218.013C159.434 217.76 159.557 217.511 159.683 217.264C159.937 217.518 160.275 217.777 160.261 218.18C160.266 218.958 160.063 219.78 160.373 220.527C160.584 221.031 161.209 221.164 161.699 221.089C162.145 220.842 162.319 220.315 162.525 219.878C162.686 219.442 162.938 219.031 163.015 218.572C162.939 217.185 162.651 215.812 162.229 214.49C161.518 212.381 160.528 210.378 159.833 208.262C159.872 208.234 159.951 208.176 159.992 208.146C159.581 201.483 156.831 194.563 156.753 188.369C156.774 187.948 156.486 187.616 156.379 187.23C156.075 186.255 156.413 185.148 155.909 184.23C155.135 183.107 152.238 183.578 151.67 184.055C144.988 189.033 147.324 181.587 146.538 178.322C145.704 177.007 139.184 173.44 142.384 171.072C146.967 167.715 145.151 163.377 146.221 160.892C147.119 159.69 149.089 157.812 148.538 156.355C149.256 154.375 151.019 153.531 153.082 151.825C152.578 151.935 152.075 152.051 151.572 152.163C153.762 149.772 155.665 147.118 157.163 144.238C156.08 144.616 155.621 145.087 155.245 144.905C154.787 143.921 160.132 139.957 160.462 139.696C158.171 138.353 162.022 134.108 161.227 130.511C160.055 130.5 159.088 131.298 158.421 132.19ZM67.999 165.72C74.3358 173.728 72.8524 173.979 73.2439 177.144C76.988 181.012 78.4283 186.51 76.8072 190.24C76.5178 189.53 76.6962 189.503 75.5635 189.765C75.669 191.464 75.9335 195.84 75.6641 197.48C73.9804 197.364 69.531 194.785 71.6527 197.69C70.3287 197.134 68.8889 196.904 67.4605 196.86C67.0761 197.232 66.6941 197.609 66.3224 197.996C63.0988 197.505 63.346 196.89 61.1819 199.502C57.8683 203.705 58.1805 203.8 58.5657 205.728C58.7745 206.788 59.1449 207.897 58.8432 208.976C58.5021 208.58 58.3428 207.976 57.8248 207.769C56.5854 208.351 57.9105 209.733 57.9496 210.8C57.4352 211.227 56.7147 211.395 56.3252 211.971C55.9992 212.454 55.7421 212.981 55.4048 213.459C54.8253 214.378 55.0617 213.715 54.6843 216.429C55.5245 216.429 56.366 216.348 57.205 216.398C58.2095 216.851 58.7786 217.941 59.8225 218.341C62.571 219.51 65.639 219.174 68.5111 219.796C73.5532 220.865 74.5497 220.643 78.1595 219.56C84.7205 217.597 81.5694 218.292 90.8596 218.472C90.6857 214.756 83.8401 213.556 82.8318 211.453C85.6297 209.634 91.6393 216.096 92.6992 218.474C95.4521 219.806 96.3892 216.433 95.9863 215.67C95.332 214.273 94.2307 213.156 93.4275 211.851C93.1669 211.521 93.6648 210.418 95.1704 211.873C96.4909 213.229 98.1051 216.012 97.4008 217.769C100.928 214.413 99.518 211.531 95.3258 209.06C92.2476 207.238 86.8712 205.44 85.4443 205.182C79.831 204.039 81.4812 204.015 78.5913 204.271C76.8548 204.446 75.1375 204.792 73.3947 204.903C78.1349 203.635 81.7505 203.522 83.6542 201.231C84.8907 199.736 86.3788 196.332 86.4053 191.304C86.4251 187.58 85.1717 185.728 84.3137 183.5C83.8516 182.385 82.9833 181.514 82.3926 180.474C82.0591 179.9 82.0705 179.211 81.821 178.607C80.4677 175.004 76.7262 171.712 73.415 168.309C72.6487 167.54 71.8695 166.749 70.8982 166.242C70.004 165.784 68.9753 165.787 67.999 165.72Z" fill="#AAAAAA"/>
<path d="M103.883 83.7358C104.179 83.5813 104.602 83.5714 104.849 83.8208C104.973 84.0703 104.797 84.3042 104.691 84.5225C104.151 85.468 103.495 86.3413 102.838 87.2074C102.489 87.6681 102.091 88.1033 101.855 88.6377C100.999 90.5373 100.753 92.6537 100.816 94.7205C100.889 96.8171 101.258 98.9037 101.885 100.907C102.081 101.589 102.412 102.232 102.54 102.935C102.698 103.304 102.121 103.661 101.873 103.353C100.955 102.492 100.094 101.504 99.6633 100.303C99.4126 99.5913 99.1505 98.8726 99.1108 98.1142C98.9749 96.2671 99.1562 94.4157 99.38 92.5828C99.6067 91.1468 99.737 89.6456 100.447 88.3471C101.138 87.0231 101.893 85.7133 102.875 84.5807C103.169 84.2546 103.485 83.9314 103.883 83.7358Z" fill="#AAAAAA" stroke="#AAAAAA" stroke-width="0.0938"/>
<path d="M120.693 92.0314C124.454 90.4664 128.679 89.5917 132.711 90.533C134.055 90.9072 135.074 92.1958 135.155 93.585C135.234 94.8098 135.184 96.0402 135.237 97.2679C135.281 98.3806 135.18 99.6239 134.367 100.472C133.659 101.134 133.115 102.005 132.201 102.415C131.293 102.935 130.229 103.052 129.289 103.477C128.934 103.645 129.151 104.042 129.249 104.305C129.467 104.771 129.427 105.297 129.457 105.8C131.528 106.775 133.667 107.711 135.957 108.006C137.543 108.21 139.186 107.98 140.643 107.313C141.429 106.991 142.096 106.414 142.939 106.225C143.853 105.977 144.282 105.084 144.785 104.376C144.952 104.089 145.278 104.22 145.537 104.269C146.281 103.706 146.988 102.947 147.974 102.869C148.032 103.593 147.597 104.221 147.104 104.704C146.638 105.144 146.291 105.691 145.832 106.138C145.282 106.683 144.632 107.109 144.024 107.585C143.429 108.075 142.666 108.261 141.959 108.528C139.562 109.374 137.005 109.904 134.454 109.649C132.52 109.47 130.636 108.974 128.74 108.574C127.872 109.174 127.009 109.782 126.152 110.396C123.719 112.042 120.771 112.814 117.854 112.892C116.067 112.933 114.264 112.752 112.549 112.239C111.738 111.969 110.864 111.935 110.082 111.573C109.152 111.159 108.157 110.736 107.477 109.951C107.188 109.698 107.466 109.337 107.787 109.35C108.98 109.371 110.166 109.689 111.206 110.277C113.522 111.048 115.973 111.497 118.419 111.405C119.915 111.341 121.429 111.001 122.717 110.21C123.901 109.482 125.137 108.8 126.178 107.866C126.681 107.464 126.567 106.77 126.583 106.204C126.553 105.595 126.631 104.945 126.322 104.393C125.608 105.162 124.492 105.125 123.527 105.104C122.363 105.035 121.188 104.899 120.075 104.543C119.763 104.455 119.623 104.14 119.442 103.908C118.726 102.847 117.733 102.025 116.903 101.063C116.117 100.168 115.708 99.02 115.365 97.8973C115.205 97.2395 114.994 96.4428 115.458 95.8588C115.963 95.1925 116.611 94.6525 117.253 94.1237C118.307 93.2902 119.429 92.5119 120.693 92.0314ZM130.569 95.1132C129.731 96.1678 129.603 97.5613 129.318 98.8314C129.09 99.6437 129.379 100.469 129.495 101.275C130.432 100.954 130.69 99.9031 130.838 99.0356C131.405 97.5074 132.269 95.9892 132.201 94.3108C131.582 94.3746 130.957 94.6028 130.569 95.1132ZM118.409 97.73C118.521 98.0163 118.65 98.3098 118.902 98.5054C119.796 99.2822 120.85 99.8507 121.747 100.625C122.118 100.959 122.327 101.441 122.735 101.742C123.19 102.095 123.643 102.46 124.16 102.72C124.35 102.796 124.57 102.917 124.78 102.82C124.859 102.683 124.935 102.544 125.006 102.404C124.485 101.903 123.811 101.535 123.435 100.904C122.529 99.0299 120.49 97.73 118.409 97.73Z" fill="#AAAAAA" stroke="#AAAAAA" stroke-width="0.0938"/>
</svg>
