<svg width="16" height="15" viewBox="0 0 16 15" fill="none" xmlns="http://www.w3.org/2000/svg">
<path fill-rule="evenodd" clip-rule="evenodd" d="M8 13.7287C4.24667 10.036 0.666667 6.864 0.666667 4.12733C0.666667 1.6 2.712 0.666667 4.18733 0.666667C5.062 0.666667 6.95467 1.00067 8 3.638C9.06 0.992667 10.976 0.673333 11.8173 0.673333C13.5107 0.673333 15.3333 1.754 15.3333 4.12733C15.3333 6.84 11.9093 9.87733 8 13.7287ZM11.8173 0.00666666C10.3487 0.00666666 8.85333 0.701333 8 2.16533C7.14333 0.694667 5.652 0 4.18733 0C2.06533 0 0 1.458 0 4.12733C0 7.23467 3.714 10.4133 8 14.6667C12.2867 10.4133 16 7.23467 16 4.12733C16 1.45333 13.9367 0.00666666 11.8173 0.00666666Z" fill="#49C2C7"/>
</svg>
