<svg width="16" height="19" viewBox="0 0 16 19" fill="none" xmlns="http://www.w3.org/2000/svg">
<path d="M8 9.15663C10.525 9.15663 12.5714 7.10712 12.5714 4.57831C12.5714 2.04951 10.525 0 8 0C5.475 0 3.42857 2.04951 3.42857 4.57831C3.42857 7.10712 5.475 9.15663 8 9.15663ZM11.2 10.3012H10.6036C9.81071 10.666 8.92857 10.8735 8 10.8735C7.07143 10.8735 6.19286 10.666 5.39643 10.3012H4.8C2.15 10.3012 0 12.4544 0 15.1084V16.5964C0 17.5442 0.767857 18.3133 1.71429 18.3133H14.2857C15.2321 18.3133 16 17.5442 16 16.5964V15.1084C16 12.4544 13.85 10.3012 11.2 10.3012Z" fill="black"/>
</svg>
