<svg xmlns="http://www.w3.org/2000/svg" version="1.1" xmlns:xlink="http://www.w3.org/1999/xlink" xmlns:svgjs="http://svgjs.com/svgjs" width="24" height="24"><svg width="24" height="24" viewBox="0 0 24 24" fill="none" xmlns="http://www.w3.org/2000/svg">
<rect width="24" height="24" fill="white"></rect>
<path d="M15.3047 11.7109C16.5964 12.3151 17.2422 13.1875 17.2422 14.3281C17.2422 15.349 16.8411 16.1953 16.0391 16.8672C14.9714 17.763 13.5156 18.2109 11.6719 18.2109C10.3021 18.2109 9.03385 17.9505 7.86719 17.4297C6.72656 16.9193 5.85677 16.2083 5.25781 15.2969C4.82552 14.6354 4.60938 14.0938 4.60938 13.6719C4.60938 13.5104 4.81771 13.3724 5.23438 13.2578C5.65625 13.8516 6.40625 14.3594 7.48438 14.7812C7.8125 14.3438 8.25521 13.7214 8.8125 12.9141C9.36979 12.1068 9.80469 11.4792 10.1172 11.0312C10.4297 10.5781 10.7422 10.1432 11.0547 9.72656C11.7474 8.80469 12.349 8.10677 12.8594 7.63281C13.0156 7.47656 13.2526 7.47135 13.5703 7.61719C13.6536 7.65365 13.7214 7.69531 13.7734 7.74219C13.3411 8.17969 12.7578 9.04948 12.0234 10.3516C12.5026 10.4661 12.9219 10.5234 13.2812 10.5234C13.6406 10.5234 13.9974 10.4844 14.3516 10.4062C14.7057 10.3229 15.0286 10.2031 15.3203 10.0469C15.9922 9.69792 16.3281 9.26823 16.3281 8.75781C16.3281 7.76302 15.5703 7.07812 14.0547 6.70312C13.4609 6.55208 12.8672 6.47656 12.2734 6.47656C11.6849 6.47656 11.1302 6.51823 10.6094 6.60156C10.0885 6.67969 9.625 6.80469 9.21875 6.97656C8.32292 7.35677 7.875 7.89583 7.875 8.59375C7.875 9.18229 8.09375 9.67708 8.53125 10.0781C8.05729 10.5833 7.67969 10.8359 7.39844 10.8359C7.07552 10.8359 6.77344 10.6615 6.49219 10.3125C6.20573 9.95312 6.0625 9.5599 6.0625 9.13281C6.0625 8.70573 6.15104 8.33073 6.32812 8.00781C6.51042 7.6849 6.75521 7.39844 7.0625 7.14844C7.36979 6.89323 7.72396 6.67188 8.125 6.48438C8.53125 6.29688 8.96094 6.14062 9.41406 6.01562C10.2943 5.77083 11.0859 5.64844 11.7891 5.64844C12.4922 5.64844 13.0781 5.67969 13.5469 5.74219C14.0208 5.79948 14.4714 5.89062 14.8984 6.01562C15.3255 6.14062 15.7214 6.29688 16.0859 6.48438C16.4505 6.67188 16.7682 6.89323 17.0391 7.14844C17.6068 7.6901 17.8906 8.33854 17.8906 9.09375C17.8906 9.69792 17.638 10.2396 17.1328 10.7188C16.6797 11.1615 16.0703 11.4922 15.3047 11.7109ZM9.28906 15.3047C9.89844 15.4245 10.3906 15.4844 10.7656 15.4844C11.1406 15.4844 11.4583 15.4766 11.7188 15.4609C11.9792 15.4401 12.2604 15.388 12.5625 15.3047C12.8698 15.2214 13.1328 15.1042 13.3516 14.9531C13.8307 14.6302 14.0703 14.1875 14.0703 13.625C14.0703 13.0781 13.7917 12.6302 13.2344 12.2812C12.724 11.9635 12.0651 11.7891 11.2578 11.7578C11.0859 12.0807 10.9141 12.4036 10.7422 12.7266C10.5703 13.0495 10.401 13.3646 10.2344 13.6719C9.88021 14.3177 9.5651 14.862 9.28906 15.3047Z" fill="#168E21"></path>
</svg><style>@media (prefers-color-scheme: light) { :root { filter: none; } }
</style></svg>